<?xml version="1.0" encoding="UTF-8" standalone="no"?>
<svg
   width="60.773346"
   height="64"
   viewBox="0 0 60.773344 63.99999"
   xml:space="preserve"
   style="clip-rule:evenodd;fill-rule:evenodd;stroke-linejoin:round;stroke-miterlimit:2"
   version="1.1"
   id="svg26"
   xmlns="http://www.w3.org/2000/svg"
   xmlns:svg="http://www.w3.org/2000/svg"><defs
   id="defs26" />    <g
   transform="matrix(0.93526231,0,0,0.93526231,-110.34225,-98.146427)"
   id="g26"
   style="fill:#ebe5d7;fill-opacity:1"> <path
   d="m 152.65,170.94 v -13.75 l -2.05,-3.35 -2.3,3.35 v 13.75 l -2.07,0.8 v 1.63 h 8.48 v -1.63 z"
   style="fill:#ebe5d7;fill-opacity:1;fill-rule:nonzero"
   id="path7" /> <g
   id="g25"
   style="fill:#ebe5d7;fill-opacity:1"> <path
   d="m 150.52,140.36 c 1.82,-2.26 2.85,-5.24 2.85,-8.31 0,-3.3 -1.03,-6.37 -2.85,-8.54 -1.82,2.17 -2.85,5.24 -2.85,8.54 0,3.06 1.03,6.05 2.85,8.31 z"
   style="fill:#ebe5d7;fill-opacity:1;fill-rule:nonzero"
   id="path8" /> <path
   d="m 136.3,119.48 c -0.56,2.78 0,5.97 1.59,8.86 1.47,2.69 3.8,4.81 6.48,5.93 0.52,-2.86 0,-5.97 -1.47,-8.66 -1.58,-2.9 -3.96,-5.09 -6.6,-6.13 z"
   style="fill:#ebe5d7;fill-opacity:1;fill-rule:nonzero"
   id="path9" /> <path
   d="m 138.3,108.41 c -0.56,2.78 0,5.97 1.59,8.86 1.44,2.65 3.83,4.82 6.48,5.93 0.52,-2.86 0,-5.97 -1.47,-8.66 -1.58,-2.9 -3.96,-5.1 -6.6,-6.13 z"
   style="fill:#ebe5d7;fill-opacity:1;fill-rule:nonzero"
   id="path10" /> <path
   d="m 158.18,125.61 c -1.47,2.69 -1.99,5.8 -1.47,8.66 2.68,-1.11 5.02,-3.24 6.48,-5.93 1.58,-2.9 2.14,-6.08 1.59,-8.86 -2.64,1.04 -5.02,3.23 -6.59,6.13 z"
   style="fill:#ebe5d7;fill-opacity:1;fill-rule:nonzero"
   id="path11" /> <path
   d="m 155.99,114.54 c -1.47,2.69 -1.99,5.8 -1.48,8.66 2.68,-1.11 5.02,-3.24 6.48,-5.93 1.58,-2.9 2.14,-6.08 1.59,-8.86 -2.64,1.03 -5.01,3.23 -6.59,6.13 z"
   style="fill:#ebe5d7;fill-opacity:1;fill-rule:nonzero"
   id="path12" /> <path
   d="m 169,146.89 c -2.69,-1.47 -5.8,-1.99 -8.66,-1.47 1.11,2.68 3.24,5.02 5.93,6.48 2.9,1.58 6.08,2.14 8.86,1.59 -1.03,-2.64 -3.23,-5.01 -6.13,-6.59 z"
   style="fill:#ebe5d7;fill-opacity:1;fill-rule:nonzero"
   id="path13" /> <path
   d="m 131.86,146.89 c -2.9,1.58 -5.1,3.96 -6.13,6.59 2.78,0.56 5.97,0 8.86,-1.59 2.69,-1.47 4.81,-3.8 5.93,-6.48 -2.86,-0.52 -5.97,0 -8.66,1.47 z"
   style="fill:#ebe5d7;fill-opacity:1;fill-rule:nonzero"
   id="path14" /> <path
   d="m 126.92,137.32 c -2.98,-1.41 -6.2,-1.79 -8.94,-1.07 1.19,2.57 3.52,4.82 6.5,6.23 2.77,1.31 5.9,1.65 8.73,0.97 -1.26,-2.61 -3.52,-4.82 -6.29,-6.13 z"
   style="fill:#ebe5d7;fill-opacity:1;fill-rule:nonzero"
   id="path15" /> <path
   d="m 182.96,136.25 c -2.74,-0.72 -5.96,-0.34 -8.94,1.07 -2.77,1.31 -5.03,3.52 -6.29,6.13 2.82,0.68 5.96,0.34 8.73,-0.97 2.98,-1.41 5.32,-3.65 6.5,-6.23 z"
   style="fill:#ebe5d7;fill-opacity:1;fill-rule:nonzero"
   id="path16" /> <path
   d="m 171.86,127.5 c -2.95,0.83 -5.54,2.64 -7.22,5 2.67,1.14 5.82,1.32 8.77,0.49 3.17,-0.89 5.85,-2.72 7.44,-5.06 -2.58,-1.16 -5.82,-1.32 -8.99,-0.43 z"
   style="fill:#ebe5d7;fill-opacity:1;fill-rule:nonzero"
   id="path17" /> <path
   d="m 129.43,127.5 c -3.18,-0.89 -6.41,-0.73 -8.99,0.43 1.6,2.35 4.27,4.17 7.44,5.06 2.95,0.83 6.1,0.65 8.77,-0.49 -1.68,-2.37 -4.27,-4.17 -7.22,-5 z"
   style="fill:#ebe5d7;fill-opacity:1;fill-rule:nonzero"
   id="path18" /> <path
   d="m 126.82,112.45 c -0.6,2.36 -0.28,5.12 0.93,7.69 1.1,2.35 3.02,4.34 5.22,5.45 0.56,-2.41 0.26,-5.16 -0.84,-7.5 -1.2,-2.57 -3.11,-4.59 -5.31,-5.64 z"
   style="fill:#ebe5d7;fill-opacity:1;fill-rule:nonzero"
   id="path19" /> <path
   d="m 169.03,118.1 c -1.1,2.34 -1.39,5.09 -0.84,7.5 2.21,-1.12 4.12,-3.11 5.22,-5.45 1.2,-2.57 1.53,-5.33 0.93,-7.69 -2.2,1.06 -4.11,3.08 -5.31,5.64 z"
   style="fill:#ebe5d7;fill-opacity:1;fill-rule:nonzero"
   id="path20" /> <path
   d="m 150.62,119.45 c 1.52,-1.98 2.36,-4.55 2.32,-7.18 -0.04,-2.84 -0.95,-5.46 -2.52,-7.33 -1.52,1.91 -2.36,4.56 -2.32,7.4 0.04,2.59 0.97,5.19 2.52,7.12 z"
   style="fill:#ebe5d7;fill-opacity:1;fill-rule:nonzero"
   id="path21" /> <path
   d="m 141.6,149.9 c -1.75,2.46 -2.66,5.55 -2.5,8.42 2.79,-0.78 5.36,-2.61 7.14,-5.11 1.92,-2.69 2.86,-5.78 2.63,-8.61 -2.74,0.71 -5.36,2.61 -7.28,5.3 z"
   style="fill:#ebe5d7;fill-opacity:1;fill-rule:nonzero"
   id="path22" /> <path
   d="m 159.35,149.9 c -1.92,-2.69 -4.54,-4.59 -7.28,-5.3 -0.22,2.83 0.72,5.92 2.63,8.61 1.78,2.5 4.35,4.33 7.15,5.11 0.17,-2.9 -0.72,-5.93 -2.5,-8.42 z"
   style="fill:#ebe5d7;fill-opacity:1;fill-rule:nonzero"
   id="path23" /> <path
   d="m 168.75,137.04 c -2.71,-1.04 -5.86,-1.11 -8.78,-0.17 -3.14,1.01 -5.74,2.93 -7.26,5.33 2.62,1.07 5.86,1.11 9,0.1 2.92,-0.94 5.44,-2.83 7.03,-5.26 z"
   style="fill:#ebe5d7;fill-opacity:1;fill-rule:nonzero"
   id="path24" /> <path
   d="m 141.11,136.81 c -2.92,-0.94 -6.07,-0.87 -8.78,0.17 1.59,2.43 4.12,4.32 7.03,5.26 3.15,1.01 6.38,0.97 9,-0.1 -1.51,-2.4 -4.11,-4.32 -7.26,-5.33 z"
   style="fill:#ebe5d7;fill-opacity:1;fill-rule:nonzero"
   id="path25" /> </g> </g> </svg>
